<?xml version="1.0" encoding="utf-8"?>
<!-- Generator: Adobe Illustrator 17.1.0, SVG Export Plug-In . SVG Version: 6.00 Build 0)  -->
<!DOCTYPE svg PUBLIC "-//W3C//DTD SVG 1.1//EN" "http://www.w3.org/Graphics/SVG/1.1/DTD/svg11.dtd">
<svg version="1.1" xmlns="http://www.w3.org/2000/svg" xmlns:xlink="http://www.w3.org/1999/xlink" x="0px" y="0px"
	 viewBox="0 0 430 125" enable-background="new 0 0 430 125" xml:space="preserve">
<g id="Layer_2" display="none">
	<rect x="-44.1" y="-5" display="inline" fill="#231F20" width="513" height="192"/>
</g>
<g id="Layer_1">
	<g>
		<g>
			<g>
				<circle fill="#FFFFFF" cx="239.6" cy="74" r="2.5"/>
				<circle fill="#FFFFFF" cx="233.6" cy="74" r="2.3"/>
				<circle fill="#FFFFFF" cx="227.8" cy="74" r="2"/>
				<circle fill="#FFFFFF" cx="222" cy="74" r="1.8"/>
				<circle fill="#FFFFFF" cx="216.2" cy="74" r="1.6"/>
				<circle fill="#FFFFFF" cx="210.3" cy="74" r="1.5"/>
			</g>
			<g>
				<circle fill="#FFFFFF" cx="247.7" cy="65.3" r="2.5"/>
				<circle fill="#FFFFFF" cx="247.7" cy="59.3" r="2.3"/>
				<circle fill="#FFFFFF" cx="247.7" cy="53.4" r="2"/>
				<circle fill="#FFFFFF" cx="247.7" cy="47.7" r="1.8"/>
				<circle fill="#FFFFFF" cx="247.7" cy="41.9" r="1.6"/>
				<circle fill="#FFFFFF" cx="247.7" cy="36" r="1.5"/>
			</g>
			<g>
				<circle fill="#FFFFFF" cx="235" cy="68.1" r="2"/>
				<circle fill="#FFFFFF" cx="229.7" cy="65.7" r="1.8"/>
				<circle fill="#FFFFFF" cx="224.5" cy="63.2" r="1.6"/>
				<path fill="#FFFFFF" d="M217.8,60.2c0.3-0.7,1.2-1.1,2-0.7c0.7,0.3,1.1,1.2,0.7,2c-0.3,0.7-1.2,1.1-2,0.7
					C217.7,61.8,217.4,60.9,217.8,60.2z"/>
			</g>
			<g>
				<path fill="#FFFFFF" d="M241.8,58.7c1.1-0.4,2.2,0.2,2.6,1.3c0.4,1.1-0.2,2.2-1.3,2.6c-1.1,0.4-2.2-0.2-2.6-1.3
					C240.1,60.3,240.7,59.1,241.8,58.7z"/>
				<path fill="#FFFFFF" d="M240,53.5c1-0.3,2,0.2,2.3,1.1c0.3,1-0.2,2-1.1,2.3c-1,0.3-2-0.2-2.3-1.1C238.5,54.9,239,53.8,240,53.5z
					"/>
				<path fill="#FFFFFF" d="M238.2,48.2c0.9-0.3,1.8,0.2,2.1,1c0.3,0.9-0.2,1.8-1,2.1c-0.9,0.3-1.8-0.2-2.1-1
					C236.8,49.4,237.3,48.5,238.2,48.2z"/>
				<path fill="#FFFFFF" d="M236.3,42.7c0.8-0.3,1.6,0.2,1.9,0.9c0.3,0.8-0.2,1.6-0.9,1.9c-0.8,0.3-1.6-0.2-1.9-0.9
					C235.1,43.8,235.5,43,236.3,42.7z"/>
			</g>
			<g>
				<circle fill="#FFFFFF" cx="241.6" cy="67.7" r="2.5"/>
				<path fill="#FFFFFF" d="M235.7,61.8c-0.9,0.9-0.9,2.3,0,3.2c0.9,0.9,2.3,0.9,3.2,0c0.9-0.9,0.9-2.3,0-3.2
					C238,60.9,236.6,60.9,235.7,61.8z"/>
				<circle fill="#FFFFFF" cx="233.2" cy="59.3" r="2"/>
				<path fill="#FFFFFF" d="M227.9,53.9c-0.7,0.7-0.7,1.9,0,2.6c0.7,0.7,1.9,0.7,2.6,0c0.7-0.7,0.7-1.9,0-2.6
					C229.7,53.2,228.6,53.2,227.9,53.9z"/>
				<path fill="#FFFFFF" d="M223.9,49.9c-0.6,0.6-0.6,1.7,0,2.3c0.6,0.6,1.7,0.6,2.3,0c0.6-0.6,0.6-1.7,0-2.3
					C225.6,49.3,224.5,49.3,223.9,49.9z"/>
				<path fill="#FFFFFF" d="M219.8,45.9c-0.6,0.6-0.6,1.5,0,2.1c0.6,0.6,1.5,0.6,2.1,0c0.6-0.6,0.6-1.5,0-2.1
					C221.3,45.3,220.4,45.3,219.8,45.9z"/>
			</g>
			<g>
				<circle fill="#FFFFFF" cx="247.8" cy="82.9" r="2.5"/>
				<circle fill="#FFFFFF" cx="247.8" cy="88.9" r="2.3"/>
				<circle fill="#FFFFFF" cx="247.8" cy="94.7" r="2"/>
				<circle fill="#FFFFFF" cx="247.8" cy="100.5" r="1.8"/>
				<circle fill="#FFFFFF" cx="247.8" cy="106.3" r="1.6"/>
				<circle fill="#FFFFFF" cx="247.8" cy="112.2" r="1.5"/>
			</g>
			<g>
				<circle fill="#FFFFFF" cx="242.5" cy="87.1" r="2"/>
				<path fill="#FFFFFF" d="M239.4,93.9c-0.9-0.4-1.3-1.5-0.9-2.4c0.4-0.9,1.5-1.3,2.4-0.9c0.9,0.4,1.3,1.5,0.9,2.4
					C241.4,94,240.3,94.4,239.4,93.9z"/>
				<path fill="#FFFFFF" d="M237,99c-0.8-0.4-1.2-1.4-0.8-2.2c0.4-0.8,1.4-1.2,2.2-0.8c0.8,0.4,1.2,1.4,0.8,2.2
					C238.8,99.1,237.8,99.4,237,99z"/>
				<circle fill="#FFFFFF" cx="235.2" cy="102.9" r="1.5"/>
			</g>
			<g>
				<path fill="#FFFFFF" d="M233.1,80.4c-0.4-1.1,0.2-2.2,1.3-2.6c1.1-0.4,2.2,0.2,2.6,1.3c0.4,1.1-0.2,2.2-1.3,2.6
					C234.6,82.1,233.4,81.5,233.1,80.4z"/>
				<path fill="#FFFFFF" d="M227.8,82.2c-0.3-1,0.2-2,1.1-2.3c1-0.3,2,0.2,2.3,1.1c0.3,1-0.2,2-1.1,2.3
					C229.2,83.7,228.2,83.2,227.8,82.2z"/>
				<path fill="#FFFFFF" d="M222.5,84c-0.3-0.9,0.2-1.8,1-2.1c0.9-0.3,1.8,0.2,2.1,1c0.3,0.9-0.2,1.8-1,2.1
					C223.7,85.3,222.8,84.9,222.5,84z"/>
				<path fill="#FFFFFF" d="M217.1,85.9c-0.3-0.8,0.2-1.6,0.9-1.9c0.8-0.3,1.6,0.2,1.9,0.9c0.3,0.8-0.2,1.6-0.9,1.9
					C218.2,87,217.3,86.6,217.1,85.9z"/>
			</g>
			<g>
				<circle fill="#FFFFFF" cx="241.7" cy="80.2" r="2.5"/>
				<path fill="#FFFFFF" d="M235.9,86c0.9,0.9,2.3,0.9,3.2,0c0.9-0.9,0.9-2.3,0-3.2c-0.9-0.9-2.3-0.9-3.2,0
					C235,83.7,235,85.1,235.9,86z"/>
				<circle fill="#FFFFFF" cx="233.3" cy="88.5" r="2"/>
				<circle fill="#FFFFFF" cx="229.3" cy="92.6" r="1.8"/>
				<circle fill="#FFFFFF" cx="225.2" cy="96.7" r="1.6"/>
				<path fill="#FFFFFF" d="M219.9,101.9c0.6,0.6,1.5,0.6,2.1,0c0.6-0.6,0.6-1.5,0-2.1c-0.6-0.6-1.5-0.6-2.1,0
					C219.4,100.4,219.4,101.3,219.9,101.9z"/>
			</g>
		</g>
		<g>
			<g>
				<path fill="#FFFFFF" d="M271.7,75.2c-0.1-2-0.2-4.3-0.2-6.4h-0.1c-0.5,1.9-1.1,3.9-1.8,5.9l-2.3,6.7h-2.1l-2-6.6
					c-0.6-2-1.1-4.1-1.5-6h0c-0.1,2-0.2,4.4-0.3,6.5l-0.3,6.2h-2.6l1-15.3h3.7l2,6.2c0.5,1.8,1,3.6,1.4,5.3h0.1
					c0.4-1.7,0.9-3.6,1.5-5.4l2.1-6.1h3.6l0.9,15.3H272L271.7,75.2z"/>
				<path fill="#FFFFFF" d="M286.5,78.2c0,1.3,0,2.4,0.1,3.3h-2.4l-0.1-1.7h-0.1c-0.5,0.8-1.6,1.9-3.6,1.9c-2,0-3.8-1.2-3.8-4.8
					v-6.5h2.8v6c0,1.8,0.6,3,2.1,3c1.1,0,1.9-0.8,2.1-1.5c0.1-0.2,0.2-0.5,0.2-0.9v-6.7h2.8V78.2z"/>
				<path fill="#FFFFFF" d="M288.9,78.9c0.6,0.4,1.8,0.8,2.8,0.8c1.2,0,1.8-0.5,1.8-1.3c0-0.8-0.5-1.1-1.8-1.6
					c-2.2-0.7-3.1-1.9-3.1-3.2c0-2,1.6-3.5,4.2-3.5c1.2,0,2.3,0.3,3,0.7l-0.6,2c-0.5-0.3-1.4-0.6-2.3-0.6c-1,0-1.5,0.5-1.5,1.2
					c0,0.7,0.5,1,1.9,1.5c2,0.7,2.9,1.7,3,3.4c0,2-1.6,3.5-4.5,3.5c-1.3,0-2.6-0.3-3.4-0.8L288.9,78.9z"/>
				<path fill="#FFFFFF" d="M299.9,76.7c0.1,2,1.6,2.9,3.4,2.9c1.3,0,2.2-0.2,3.1-0.5l0.4,1.9c-1,0.4-2.3,0.7-3.9,0.7
					c-3.6,0-5.7-2.2-5.7-5.6c0-3.1,1.9-6,5.4-6c3.6,0,4.8,3,4.8,5.4c0,0.5,0,0.9-0.1,1.2H299.9z M304.8,74.8c0-1-0.4-2.7-2.3-2.7
					c-1.7,0-2.5,1.6-2.6,2.7H304.8z"/>
				<path fill="#FFFFFF" d="M319.1,78.2c0,1.3,0,2.4,0.1,3.3h-2.4l-0.1-1.7h-0.1c-0.5,0.8-1.6,1.9-3.6,1.9c-2,0-3.8-1.2-3.8-4.8
					v-6.5h2.8v6c0,1.8,0.6,3,2.1,3c1.1,0,1.9-0.8,2.1-1.5c0.1-0.2,0.2-0.5,0.2-0.9v-6.7h2.8V78.2z"/>
				<path fill="#FFFFFF" d="M321.2,73.7c0-1.3,0-2.3-0.1-3.3h2.4l0.1,1.6h0.1c0.5-0.9,1.5-1.9,3.4-1.9c1.5,0,2.6,0.8,3.1,2h0
					c0.4-0.6,0.8-1.1,1.3-1.4c0.6-0.4,1.3-0.7,2.3-0.7c1.8,0,3.7,1.3,3.7,4.8v6.5h-2.7v-6.1c0-1.8-0.6-2.9-2-2.9c-1,0-1.7,0.7-2,1.5
					c-0.1,0.3-0.1,0.6-0.1,0.9v6.6H328v-6.4c0-1.5-0.6-2.6-1.9-2.6c-1,0-1.8,0.8-2,1.6c-0.1,0.3-0.1,0.6-0.1,0.9v6.6h-2.7V73.7z"/>
				<path fill="#FFFFFF" d="M343.6,80.3c0,0.5,0,0.9,0.1,1.2h-1.1l-0.1-0.6h0c-0.3,0.4-0.8,0.7-1.5,0.7c-1,0-1.6-0.7-1.6-1.5
					c0-1.3,1.1-1.9,3-1.9v-0.1c0-0.3-0.1-0.9-1-0.9c-0.5,0-1,0.2-1.3,0.4l-0.2-0.8c0.4-0.2,1-0.4,1.8-0.4c1.6,0,2.1,1,2.1,2.1V80.3z
					 M342.3,79.1c-0.9,0-1.7,0.2-1.7,0.9c0,0.5,0.3,0.7,0.7,0.7c0.5,0,0.9-0.3,1-0.7c0-0.1,0-0.2,0-0.3V79.1z"/>
				<path fill="#FFFFFF" d="M344.9,78c0-0.6,0-1.1,0-1.5h1.1l0.1,0.7h0c0.2-0.4,0.8-0.9,1.6-0.9c0.9,0,1.8,0.6,1.8,2.1v3h-1.3v-2.8
					c0-0.7-0.3-1.3-1-1.3c-0.5,0-0.9,0.4-1,0.7c0,0.1-0.1,0.3-0.1,0.4v2.9h-1.3V78z"/>
				<path fill="#FFFFFF" d="M355.4,74.2v5.9c0,0.5,0,1.1,0,1.4h-1.1l-0.1-0.8h0c-0.3,0.6-0.9,0.9-1.6,0.9c-1.2,0-2.1-1-2.1-2.6
					c0-1.7,1-2.7,2.2-2.7c0.7,0,1.2,0.3,1.4,0.6h0v-2.8H355.4z M354.1,78.6c0-0.1,0-0.2,0-0.3c-0.1-0.5-0.5-0.9-1.1-0.9
					c-0.8,0-1.3,0.7-1.3,1.6c0,0.9,0.5,1.6,1.3,1.6c0.5,0,1-0.3,1.1-0.9c0-0.1,0-0.2,0-0.4V78.6z"/>
				<path fill="#FFFFFF" d="M357.7,66.1h2.8v13h6.3v2.3h-9.1V66.1z"/>
				<path fill="#FFFFFF" d="M369.7,68.8c-0.9,0-1.5-0.7-1.5-1.5c0-0.9,0.6-1.5,1.6-1.5c1,0,1.5,0.7,1.6,1.5
					C371.3,68.1,370.7,68.8,369.7,68.8L369.7,68.8z M368.3,81.5V70.4h2.8v11.1H368.3z"/>
				<path fill="#FFFFFF" d="M373.2,65.3h2.8v6.6h0c0.7-1.1,1.9-1.8,3.6-1.8c2.7,0,4.6,2.3,4.6,5.6c0,4-2.5,6-5,6
					c-1.4,0-2.7-0.5-3.5-1.9h0l-0.1,1.7h-2.4c0-0.8,0.1-2,0.1-3.1V65.3z M376,76.9c0,0.2,0,0.5,0.1,0.7c0.3,1.1,1.3,2,2.5,2
					c1.8,0,2.8-1.4,2.8-3.6c0-2-0.9-3.6-2.8-3.6c-1.1,0-2.2,0.8-2.5,2c0,0.2-0.1,0.5-0.1,0.7V76.9z"/>
				<path fill="#FFFFFF" d="M386.1,74c0-1.5,0-2.6-0.1-3.6h2.4l0.1,2.1h0.1c0.5-1.5,1.8-2.3,3.1-2.3c0.3,0,0.4,0,0.7,0.1v2.6
					c-0.3,0-0.5-0.1-0.8-0.1c-1.3,0-2.3,0.8-2.5,2.1c0,0.3-0.1,0.5-0.1,0.8v5.8h-2.8V74z"/>
				<path fill="#FFFFFF" d="M402.4,78.8c0,1,0,2,0.2,2.7H400l-0.2-1.2h-0.1c-0.7,0.9-1.8,1.5-3.3,1.5c-2.2,0-3.5-1.6-3.5-3.3
					c0-2.8,2.5-4.2,6.6-4.2v-0.2c0-0.7-0.3-1.9-2.3-1.9c-1.1,0-2.2,0.3-3,0.8l-0.5-1.8c0.8-0.5,2.3-1,4-1c3.6,0,4.6,2.3,4.6,4.7
					V78.8z M399.6,76.1c-2,0-3.9,0.4-3.9,2.1c0,1.1,0.7,1.6,1.6,1.6c1.1,0,1.9-0.7,2.2-1.5c0.1-0.2,0.1-0.4,0.1-0.6V76.1z"/>
				<path fill="#FFFFFF" d="M404.4,74c0-1.5,0-2.6-0.1-3.6h2.4l0.1,2.1h0.1c0.5-1.5,1.8-2.3,3.1-2.3c0.3,0,0.4,0,0.7,0.1v2.6
					c-0.3,0-0.5-0.1-0.8-0.1c-1.3,0-2.3,0.8-2.5,2.1c0,0.3-0.1,0.5-0.1,0.8v5.8h-2.8V74z"/>
				<path fill="#FFFFFF" d="M414.4,70.4l2,5.9c0.2,0.7,0.5,1.5,0.6,2.1h0.1c0.2-0.6,0.4-1.5,0.6-2.2l1.7-5.9h3l-2.8,7.6
					c-1.5,4.1-2.6,6-3.8,7.1c-1.1,1-2.3,1.3-2.9,1.4l-0.6-2.3c0.5-0.1,1-0.4,1.6-0.8c0.5-0.3,1.2-1,1.5-1.8c0.1-0.2,0.2-0.4,0.2-0.5
					c0-0.1,0-0.3-0.1-0.5l-4.1-10.2H414.4z"/>
			</g>
		</g>
		<g>
			<path fill="#FFFFFF" d="M277.4,66.8c-0.4,0-0.5,0-0.9,0l-0.1-0.1c0-0.7,0-1.3,0-1.8c0-0.3,0-4-0.1-6l0.1-0.1c0.3,0,0.5,0,0.9,0
				l0.1,0.1v0.3c0,0.7,0,1.3,0,2C277.4,63.3,277.5,65,277.4,66.8L277.4,66.8z"/>
			<path fill="#FFFFFF" d="M285.9,66.8c-0.1,0-0.3,0-0.4,0c-0.1,0-0.6,0-0.7,0l-0.1-0.1c-0.4-0.6-0.7-1.2-1.1-1.8l-3-5.2l0,1.5
				c0,3.7,0,4.1,0.1,5.4l-0.1,0.1c-0.3,0-0.4,0-0.7,0l-0.1-0.1c0-0.2,0-5.1,0-6.2c0-0.3,0-1.5,0-1.6l0.1-0.1c0.3,0,0.8,0,1.1,0
				l0.1,0.1c0.4,0.5,0.4,0.7,1.2,2c0.5,0.8,0.9,1.6,1.4,2.4l1.5,2.6v-1.5c0-1.3,0-3.8-0.1-5.4l0.1-0.1c0.4,0,0.4,0,0.7,0l0.1,0.1
				c0,0.7,0,1.3,0,1.8c0,2.1,0,4.1,0.1,6.1L285.9,66.8z"/>
			<path fill="#FFFFFF" d="M287.8,65.4c0.4,0.6,1.3,0.9,1.9,0.9c1.1,0,1.9-0.6,1.9-1.5c0-0.6-0.4-1-0.9-1.3
				c-0.2-0.1-1.3-0.6-1.6-0.7c-0.6-0.3-1.5-0.8-1.5-2c0-1.1,0.8-2.1,2.6-2.1c0.7,0,1.4,0.2,2.1,0.6l0,0.1c-0.1,0.3-0.1,0.4-0.1,0.7
				L292,60c-0.3-0.3-0.9-0.7-1.8-0.7c-1.7,0-1.7,1.1-1.7,1.4c0,0.7,0.5,1,1.3,1.3l0.8,0.4c0.8,0.3,1.9,0.8,1.9,2.3
				c0,1.3-1,2.3-2.7,2.3c-1.1,0-1.8-0.4-2.1-0.6l0-0.1c0-0.1,0-0.2,0.1-0.4c0-0.1,0-0.3,0.1-0.4L287.8,65.4z"/>
			<path fill="#FFFFFF" d="M296.5,66.8c-0.3,0-0.4,0-0.8,0l-0.1-0.1c0-0.8,0-1.6,0-2.4c0-1,0-4,0-4.8c-0.5,0-1.9,0-2.4,0l-0.1-0.1
				c0-0.2,0-0.3,0-0.7l0.1-0.1c0.2,0,1.1,0,1.3,0h2.7c0.9,0,1.4,0,1.7,0l0.1,0.1c0,0.3,0,0.4-0.1,0.7l-0.1,0.1c-0.4,0-0.8,0-1.3,0
				c-0.2,0-1,0-1.1,0c0,0.3,0,0.7,0,1c0,0.7,0,1.5,0,2.2c0,0.8,0,1.5,0,2.3C296.6,65.3,296.6,66.4,296.5,66.8L296.5,66.8z"/>
			<path fill="#FFFFFF" d="M301.2,66.8c-0.4,0-0.5,0-0.9,0l-0.1-0.1c0-0.7,0-1.3,0-1.8c0-0.3,0-4-0.1-6l0.1-0.1c0.3,0,0.5,0,0.9,0
				l0.1,0.1v0.3c0,0.7,0,1.3,0,2C301.2,63.3,301.2,65,301.2,66.8L301.2,66.8z"/>
			<path fill="#FFFFFF" d="M305.8,66.8c-0.3,0-0.4,0-0.8,0l-0.1-0.1c0-0.8,0-1.6,0-2.4c0-1,0-4,0-4.8c-0.5,0-1.9,0-2.4,0l-0.1-0.1
				c0-0.2,0-0.3,0-0.7l0.1-0.1c0.2,0,1.1,0,1.3,0h2.7c0.9,0,1.4,0,1.7,0l0.1,0.1c0,0.3,0,0.4-0.1,0.7l-0.1,0.1c-0.4,0-0.8,0-1.3,0
				c-0.2,0-1,0-1.1,0c0,0.3,0,0.7,0,1c0,0.7,0,1.5,0,2.2c0,0.8,0,1.5,0,2.3C305.8,65.3,305.9,66.4,305.8,66.8L305.8,66.8z"/>
			<path fill="#FFFFFF" d="M315.3,58.8V59c0,1.4,0,1.6,0,2.9v1.5c0,0.8,0,1.5-0.3,2.1c-0.5,1-1.5,1.5-2.7,1.5
				c-0.7,0-1.4-0.2-1.9-0.5c-1-0.7-1-2-1-2.9v-0.7c0-0.9,0-3.2,0-4l0.1-0.1c0.4,0,0.4,0,0.9,0l0.1,0.1c0,1.4-0.1,2.8-0.1,4.2
				c0,1.4,0,2.1,0.6,2.6c0.3,0.3,0.8,0.5,1.5,0.5c0.8,0,1.4-0.3,1.8-0.9c0.3-0.5,0.3-1.1,0.3-2.3c0-1.3,0-2.7-0.1-4l0.1-0.1
				C314.9,58.8,314.9,58.8,315.3,58.8L315.3,58.8z"/>
			<path fill="#FFFFFF" d="M320,66.8c-0.3,0-0.4,0-0.8,0l-0.1-0.1c0-0.8,0-1.6,0-2.4c0-1,0-4,0-4.8c-0.5,0-1.9,0-2.4,0l-0.1-0.1
				c0-0.2,0-0.3,0-0.7l0.1-0.1c0.2,0,1.1,0,1.3,0h2.7c0.9,0,1.4,0,1.7,0l0.1,0.1c0,0.3,0,0.4-0.1,0.7l-0.1,0.1c-0.4,0-0.8,0-1.3,0
				c-0.2,0-1,0-1.1,0c0,0.3,0,0.7,0,1c0,0.7,0,1.5,0,2.2c0,0.8,0,1.5,0,2.3C320,65.3,320.1,66.4,320,66.8L320,66.8z"/>
			<path fill="#FFFFFF" d="M328.1,66.8h-3.4c-0.4,0-0.6,0-1,0l-0.1-0.1v-0.3c0-0.5,0-1,0-1.4c0-2,0-4.1-0.1-6.1l0.1-0.1
				c0.3,0,0.6,0,0.9,0h2c0.7,0,1.2,0,1.6,0l0.1,0.1c0,0.3,0,0.4,0,0.7l-0.1,0.1c-0.6,0-0.8,0-3,0l-0.5,0c0,0.9,0,1.9,0,2.7h1
				c0.4,0,0.8,0,1.1,0c0.8,0,0.8,0,1.3,0l0.1,0.1c0,0.3,0,0.3,0,0.6l-0.1,0.1c-0.5,0-0.9,0-2.4,0h-1c0,0.5,0,2.8,0,3h0.9
				c1.1,0,1.2,0,2.7,0l0.1,0.1c0,0.3,0,0.3,0,0.6L328.1,66.8z"/>
			<path fill="#FFFFFF" d="M334.4,66.9c-1.3,0-2-0.7-2-2c0-1.2,0.6-3.5,2.9-3.5c1.4,0,2,0.9,2,2c0,0.4-0.1,0.7-0.2,1.1
				C337,65,336.5,66.9,334.4,66.9z M336.7,63.4c0-1.1-0.7-1.4-1.3-1.4c-1.9,0-2.2,2.5-2.2,3c0,0.9,0.5,1.5,1.4,1.5
				c0.3,0,0.7-0.1,1.1-0.3c0.7-0.5,0.9-1.5,1-1.8C336.6,64,336.7,63.7,336.7,63.4z"/>
			<path fill="#FFFFFF" d="M339.8,62.1c-0.5,2.2-0.6,2.7-1,4.7l-0.1,0.1l-0.6,0l-0.1-0.1l0.5-2.2l0.6-2.5l-0.8,0l-0.1-0.1l0.1-0.4
				l0.1-0.1l0.7,0l0.2-0.8c0.1-0.6,0.2-0.8,0.3-1c0.2-0.4,0.5-1,1.4-1c0.2,0,0.4,0,0.6,0.1l0.1,0.1l-0.1,0.4l-0.1,0.1
				c-0.1,0-0.3-0.1-0.5-0.1c-0.2,0-0.4,0.1-0.5,0.2c-0.2,0.2-0.3,0.5-0.5,1.3l-0.1,0.7l1,0l0.1,0.1l-0.1,0.4l-0.1,0.1H339.8z"/>
		</g>
		<g>
			<path fill="#FFFFFF" d="M357.8,91.8c0.4,0.6,1.3,0.9,1.9,0.9c1.1,0,1.9-0.6,1.9-1.5c0-0.6-0.4-1-0.9-1.3
				c-0.2-0.1-1.3-0.6-1.6-0.7c-0.6-0.3-1.5-0.8-1.5-2c0-1.1,0.8-2.1,2.6-2.1c0.7,0,1.4,0.2,2.1,0.6l0,0.1c-0.1,0.3-0.1,0.4-0.1,0.7
				l-0.1,0.1c-0.3-0.3-0.9-0.7-1.8-0.7c-1.7,0-1.7,1.1-1.7,1.4c0,0.7,0.5,1,1.3,1.3l0.8,0.4c0.8,0.3,1.9,0.8,1.9,2.3
				c0,1.3-1,2.3-2.7,2.3c-1.1,0-1.8-0.4-2.1-0.6l0-0.1c0-0.1,0-0.2,0.1-0.4c0-0.1,0-0.3,0.1-0.4L357.8,91.8z"/>
			<path fill="#FFFFFF" d="M369.2,93.2h-3.4c-0.4,0-0.6,0-1,0l-0.1-0.1v-0.3c0-0.5,0-1,0-1.4c0-2,0-4.1-0.1-6.1l0.1-0.1
				c0.3,0,0.6,0,0.9,0h2c0.7,0,1.2,0,1.6,0l0.1,0.1c0,0.3,0,0.4,0,0.7l-0.1,0.1c-0.6,0-0.8,0-3,0l-0.5,0c0,0.9,0,1.9,0,2.7h1
				c0.4,0,0.8,0,1.1,0c0.8,0,0.8,0,1.3,0l0.1,0.1c0,0.3,0,0.3,0,0.6l-0.1,0.1c-0.5,0-0.9,0-2.4,0h-1c0,0.5,0,2.8,0,3h0.9
				c1.1,0,1.2,0,2.7,0l0.1,0.1c0,0.3,0,0.3,0,0.6L369.2,93.2z"/>
			<path fill="#FFFFFF" d="M371.6,85.2c0,0,2.3,0,2.3,0c0.6,0,1.2,0,1.7,0.3c0.7,0.3,1.2,1,1.2,1.9c0,1.2-1,2.1-2.3,2.2l0.8,0.9
				c0.9,1.1,1.1,1.3,2.1,2.6l-0.1,0.1h-0.6c-0.1,0-0.3,0-0.4,0l-0.1-0.1c-0.2-0.3-0.5-0.6-0.7-0.9c-0.3-0.4-0.6-0.8-0.9-1.2
				c-0.2-0.3-1-1.3-1.2-1.5c-0.4,0-0.5,0-0.9,0c0,1.2,0,2.3,0.1,3.5l-0.1,0.1c-0.4,0-0.5,0-0.8,0l-0.1-0.1c0-0.6,0-1.2,0-1.8
				c0-2,0-4-0.1-6L371.6,85.2z M374.7,88.8c0.4-0.1,1.2-0.4,1.2-1.4c0-0.5-0.2-0.8-0.4-1c-0.4-0.3-1-0.4-1.8-0.4c-0.3,0-0.8,0-1.2,0
				v3C373.7,88.9,374.2,88.9,374.7,88.8z"/>
			<path fill="#FFFFFF" d="M382.1,93.2c-0.5,0-0.6,0-1.1,0l-0.1-0.1c-0.2-0.7-0.6-1.8-0.8-2.4l-1-3c-0.1-0.4-0.3-0.8-0.4-1.2
				c-0.1-0.3-0.3-0.8-0.4-1.2l0.1-0.1c0.5,0,0.6,0,0.9-0.1l0.1,0.1c0.3,1.1,0.5,1.9,0.9,2.9l1.3,4.2l1.6-5c0.2-0.8,0.3-0.9,0.6-2.1
				l0.1-0.1c0.4,0,0.5,0,0.8,0l0.1,0.1c-0.2,0.5-0.3,0.8-0.9,2.7l-0.9,2.7C382.7,91.7,382.7,91.8,382.1,93.2L382.1,93.2z"/>
			<path fill="#FFFFFF" d="M387.6,93.2c-0.4,0-0.5,0-0.9,0l-0.1-0.1c0-0.7,0-1.3,0-1.8c0-0.3,0-4-0.1-6l0.1-0.1c0.3,0,0.5,0,0.9,0
				l0.1,0.1v0.3c0,0.7,0,1.3,0,2C387.6,89.8,387.7,91.5,387.6,93.2L387.6,93.2z"/>
			<path fill="#FFFFFF" d="M396.3,91.8c0,0.4,0,0.5-0.1,0.8l-0.1,0.1c-0.5,0.3-1.1,0.6-2.2,0.6c-0.7,0-1.7-0.1-2.7-1
				c-0.9-0.8-1.3-2-1.3-3.2c0-2.3,1.4-4.2,4-4.2c1.1,0,1.7,0.3,2.1,0.5l0.1,0.1c-0.1,0.3-0.1,0.3-0.1,0.7l-0.1,0.1
				c-0.4-0.3-1-0.6-1.9-0.6c-2.1,0-3,1.7-3,3.4c0,1.7,1,3.4,3.1,3.4c1.1,0,1.6-0.4,2.1-0.8L396.3,91.8z"/>
			<path fill="#FFFFFF" d="M403.1,93.2h-3.4c-0.4,0-0.6,0-1,0l-0.1-0.1v-0.3c0-0.5,0-1,0-1.4c0-2,0-4.1-0.1-6.1l0.1-0.1
				c0.3,0,0.6,0,0.9,0h2c0.7,0,1.2,0,1.6,0l0.1,0.1c0,0.3,0,0.4,0,0.7l-0.1,0.1c-0.6,0-0.8,0-3,0l-0.5,0c0,0.9,0,1.9,0,2.7h1
				c0.4,0,0.8,0,1.1,0c0.8,0,0.8,0,1.3,0l0.1,0.1c0,0.3,0,0.3,0,0.6l-0.1,0.1c-0.5,0-0.9,0-2.4,0h-1c0,0.5,0,2.8,0,3h0.9
				c1.1,0,1.2,0,2.7,0l0.1,0.1c0,0.3,0,0.3,0,0.6L403.1,93.2z"/>
			<path fill="#FFFFFF" d="M405.2,91.8c0.4,0.6,1.3,0.9,1.9,0.9c1.1,0,1.9-0.6,1.9-1.5c0-0.6-0.4-1-0.9-1.3
				c-0.2-0.1-1.3-0.6-1.6-0.7c-0.6-0.3-1.5-0.8-1.5-2c0-1.1,0.8-2.1,2.6-2.1c0.7,0,1.4,0.2,2.1,0.6l0,0.1c-0.1,0.3-0.1,0.4-0.1,0.7
				l-0.1,0.1c-0.3-0.3-0.9-0.7-1.8-0.7c-1.7,0-1.7,1.1-1.7,1.4c0,0.7,0.5,1,1.3,1.3l0.8,0.4c0.8,0.3,1.9,0.8,1.9,2.3
				c0,1.3-1,2.3-2.7,2.3c-1.1,0-1.8-0.4-2.1-0.6l0-0.1c0-0.1,0-0.2,0.1-0.4c0-0.1,0-0.3,0.1-0.4L405.2,91.8z"/>
		</g>
	</g>
	<text transform="matrix(1 0 0 1 167.5 19.375)" fill="#FFFFFF" font-family="'Gotham-Bold'" font-size="12">PRESENTED BY</text>
	<g>
		<g>
			<polygon fill="#FFFFFF" points="63.1,44 55.5,44 55.5,58.5 63.1,58.5 			"/>
			<path fill="#FFFFFF" d="M7.9,34.5v53.6h64.8V34.5H7.9z M36.4,83.3l-4.8,0V44h-4.8l0,39.3l-4.8,0l0-39.3h-4.8l0,39.3l-4.8,0V39.2
				h23.8V83.3z M45.9,83.3l-4.8,0l0-44.1h4.8L45.9,83.3z M67.9,83.3l-4.8,0v-20l-7.6,0v20h-4.8V39.2h17.2L67.9,83.3z"/>
		</g>
		<g>
			<path fill="#FFFFFF" d="M79.9,77.3v10.8h-2.5v-20h2l3.2,10.5h0.4l3.2-10.5H88v20h-2.5V77.2l-2.4,9h-0.8L79.9,77.3z"/>
			<path fill="#FFFFFF" d="M94.1,88.1h-2.6v-20h2.6V88.1z"/>
			<path fill="#FFFFFF" d="M100.3,77.5v10.6h-2.4v-20h1.3l4.6,11v-11h2.4v20h-1.4L100.3,77.5z"/>
			<path fill="#FFFFFF" d="M112.2,77.5v10.6h-2.4v-20h1.3l4.6,11v-11h2.4v20h-1.4L112.2,77.5z"/>
			<path fill="#FFFFFF" d="M128.3,88.1h-6.5v-20h6.4v2.2h-3.9v6.5h3.6V79h-3.6v7h4V88.1z"/>
			<path fill="#FFFFFF" d="M137.4,88.1l-0.6-3.9h-3.6l-0.6,3.9H130l3.7-20h2.6l3.7,20H137.4z M135.1,74.3h-0.2l-1.4,7.7h2.9
				L135.1,74.3z"/>
			<path fill="#FFFFFF" d="M145,88.1h-2.6v-20h6.3c1.3,0,1.9,0.7,1.9,1.7c0,3.6,0,5.4,0,8.9c0,1-0.7,1.7-1.8,1.7H145V88.1z
				 M145,78.2h3.1v-8H145V78.2z"/>
			<path fill="#FFFFFF" d="M162.4,86.5c0,1-0.9,1.6-1.6,1.6c-2.1,0-3.6,0-5.7,0c-0.7,0-1.6-0.6-1.6-1.6c0-6.6,0-10.2,0-16.8
				c0-1,0.9-1.6,1.6-1.6c2.1,0,3.6,0,5.7,0c0.7,0,1.6,0.6,1.6,1.6C162.4,76.3,162.4,79.9,162.4,86.5z M159.8,70.3h-3.7v15.7h3.7
				V70.3z"/>
			<path fill="#FFFFFF" d="M172.9,88.1h-7v-20h2.6v17.8h4.5V88.1z"/>
			<path fill="#FFFFFF" d="M177.6,88.1h-2.6v-20h2.6V88.1z"/>
			<path fill="#FFFFFF" d="M183.5,81.2v4.7h2.2v-4.5l-4.3-6.1c-0.3-0.4-0.5-0.8-0.5-1.3c0-1.7,0-2.5,0-4.3c0-0.8,0.7-1.6,1.6-1.6
				c1.5,0,2.7,0,4.2,0c1,0,1.6,0.7,1.6,1.7v4.1h-2.6v-3.6h-2.2v3.5l4.1,5.8c0.4,0.6,0.7,1.1,0.7,1.7c0,2.2,0,3,0,5.2
				c0,0.9-0.6,1.7-1.6,1.7c-1.5,0-2.7,0-4.2,0c-0.8,0-1.6-0.6-1.6-1.7v-5.2H183.5z"/>
		</g>
		<g>
			<path fill="#FFFFFF" d="M32.6,112.9H30v-20h2.6V112.9z"/>
			<path fill="#FFFFFF" d="M38.8,102.3v10.6h-2.4v-20h1.3l4.6,11v-11h2.4v20h-1.4L38.8,102.3z"/>
			<path fill="#FFFFFF" d="M50.3,106.1v4.7h2.2v-4.5l-4.3-6.1c-0.3-0.4-0.5-0.8-0.5-1.3c0-1.7,0-2.5,0-4.3c0-0.8,0.7-1.6,1.6-1.6
				c1.5,0,2.7,0,4.2,0c1,0,1.6,0.7,1.6,1.7v4.1h-2.6v-3.6h-2.2v3.5l4.1,5.8c0.4,0.6,0.7,1.1,0.7,1.7c0,2.2,0,3,0,5.2
				c0,0.9-0.6,1.7-1.6,1.7c-1.5,0-2.7,0-4.2,0c-0.8,0-1.6-0.6-1.6-1.7v-5.2H50.3z"/>
			<path fill="#FFFFFF" d="M62.2,112.9h-2.6V95.1h-2.8v-2.2h8.1v2.2h-2.8V112.9z"/>
			<path fill="#FFFFFF" d="M69.8,112.9h-2.6v-20h2.6V112.9z"/>
			<path fill="#FFFFFF" d="M77.7,112.9h-2.6V95.1h-2.8v-2.2h8.1v2.2h-2.8V112.9z"/>
			<path fill="#FFFFFF" d="M85.3,92.9v17.8h3.4V92.9h2.6v18.4c0,1-0.6,1.7-1.6,1.7c-2,0-3.4,0-5.4,0c-0.9,0-1.6-0.6-1.6-1.7V92.9
				H85.3z"/>
			<path fill="#FFFFFF" d="M98.7,112.9h-2.6V95.1h-2.8v-2.2h8.1v2.2h-2.8V112.9z"/>
			<path fill="#FFFFFF" d="M110.4,112.9h-6.5v-20h6.4v2.2h-3.9v6.5h3.6v2.2h-3.6v7h4V112.9z"/>
			<path fill="#FFFFFF" d="M129.5,111.3c0,1-0.9,1.6-1.6,1.6c-2.1,0-3.6,0-5.7,0c-0.7,0-1.6-0.6-1.6-1.6c0-6.6,0-10.2,0-16.8
				c0-1,0.9-1.6,1.6-1.6c2.1,0,3.6,0,5.7,0c0.7,0,1.6,0.6,1.6,1.6C129.5,101.1,129.5,104.7,129.5,111.3z M126.9,95.1h-3.7v15.7h3.7
				V95.1z"/>
			<path fill="#FFFFFF" d="M133,112.9v-20h6.4v2.2h-3.9v6.5h3.6v2.2h-3.6v9.1H133z"/>
			<path fill="#FFFFFF" d="M156,112.9l-0.6-3.9h-3.6l-0.6,3.9h-2.5l3.7-20h2.6l3.7,20H156z M153.7,99.1h-0.2l-1.4,7.7h2.9
				L153.7,99.1z"/>
			<path fill="#FFFFFF" d="M163.6,112.9h-2.6v-20h6.6c1.2,0,1.8,0.8,1.8,1.7c0,2.8,0,4.6,0,7.4c0,1.1-0.8,1.7-1.7,1.7h-0.3l2.5,9.3
				H167l-2.6-10.6l0.4-0.8h2.1v-6.4h-3.3V112.9z"/>
			<path fill="#FFFFFF" d="M176.4,112.9h-2.6V95.1H171v-2.2h8.1v2.2h-2.8V112.9z"/>
			<path fill="#FFFFFF" d="M183.5,106.1v4.7h2.2v-4.5l-4.3-6.1c-0.3-0.4-0.5-0.8-0.5-1.3c0-1.7,0-2.5,0-4.3c0-0.8,0.7-1.6,1.6-1.6
				c1.5,0,2.7,0,4.2,0c1,0,1.6,0.7,1.6,1.7v4.1h-2.6v-3.6h-2.2v3.5l4.1,5.8c0.4,0.6,0.7,1.1,0.7,1.7c0,2.2,0,3,0,5.2
				c0,0.9-0.6,1.7-1.6,1.7c-1.5,0-2.7,0-4.2,0c-0.8,0-1.6-0.6-1.6-1.7v-5.2H183.5z"/>
		</g>
	</g>
</g>
</svg>
