<svg version="1" xmlns="http://www.w3.org/2000/svg" viewBox="0 0 173.3 176.7" enable-background="new 0 0 173.3 176.7"><path fill="#999" d="M86 22.5h66.1v5l14.6-12.2-14.6-12.3v5h-115v-5l-14.6 12.3 14.6 12.2v-5z"/><path fill="#fff" d="M122.4 135.7l15.5-15.6c3.7-3.7 3.7-9.8 0-13.5-3.7-3.7-9.8-3.7-13.5.1l-3.3 3.4c-.5-2-1.2-3.9-1.9-5.9l7.2-7.6c4.7-5 5-12.5.5-16.7-4.5-4.2-11.9-3.6-16.7 1.4l-2.2 2.4c-1.1-1.5-2.3-3-3.5-4.4l8-8.5c4.7-5 5-12.5.5-16.7-4.5-4.2-11.9-3.6-16.7 1.4l-8.1 8.5c-2.1-1.5-4.3-2.8-6.4-3.9l31.6-33.4c4.7-5 5-12.5.5-16.7-4.5-4.2-11.9-3.6-16.7 1.4l-44.3 46.9c-4.1 3.3-7.6 4.2-10.7 2.4 0 0-.1 0-.1-.1-7-13.4-14.8-24.3-21.6-24.1-8.6.2-10 13.5-8.2 26.3l-.1 46.4c-2.3 14.5 3.6 26.7 13.3 37.8.5.6.9 1.1 1.4 1.5 1.7 1.9 3.5 3.7 5.4 5.5 5 4.8 35.2 37.4 82-4.8 4.2-3.2 6.8-8 8.1-13.5"/></svg>