<?xml version="1.0" encoding="utf-8"?>
<!-- Generator: Adobe Illustrator 17.1.0, SVG Export Plug-In . SVG Version: 6.00 Build 0)  -->
<!DOCTYPE svg PUBLIC "-//W3C//DTD SVG 1.0//EN" "http://www.w3.org/TR/2001/REC-SVG-20010904/DTD/svg10.dtd">
<svg version="1.0" id="Layer_1" xmlns="http://www.w3.org/2000/svg" xmlns:xlink="http://www.w3.org/1999/xlink" x="0px" y="0px"
	 viewBox="0 0 173.3 176.7" enable-background="new 0 0 173.3 176.7" xml:space="preserve">
<polygon fill="#999999" points="86,22.5 103.3,22.5 152.1,22.5 152.1,27.5 166.7,15.3 152.1,3 152.1,8 103.3,8 86,8 37.1,8 37.1,3 
	22.5,15.3 37.1,27.5 37.1,22.5 "/>
<path fill="#FFFFFF" d="M122.4,135.7l15.5-15.6c3.7-3.7,3.7-9.8,0-13.5c-3.7-3.7-9.8-3.7-13.5,0.1l-3.3,3.4c-0.5-2-1.2-3.9-1.9-5.9
	l7.2-7.6c4.7-5,5-12.5,0.5-16.7c-4.5-4.2-11.9-3.6-16.7,1.4l-2.2,2.4c-1.1-1.5-2.3-3-3.5-4.4l8-8.5c4.7-5,5-12.5,0.5-16.7
	c-4.5-4.2-11.9-3.6-16.7,1.4L88.2,64c-2.1-1.5-4.3-2.8-6.4-3.9l31.6-33.4c4.7-5,5-12.5,0.5-16.7c-4.5-4.2-11.9-3.6-16.7,1.4
	L52.9,58.3c-4.1,3.3-7.6,4.2-10.7,2.4c0,0-0.1,0-0.1-0.1c-7-13.4-14.8-24.3-21.6-24.1c-8.6,0.2-10,13.5-8.2,26.3l-0.1,46.4l0,0
	c-2.3,14.5,3.6,26.7,13.3,37.8c0.5,0.6,0.9,1.1,1.4,1.5c1.7,1.9,3.5,3.7,5.4,5.5c5,4.8,35.2,37.4,82-4.8
	C118.5,146,121.1,141.2,122.4,135.7"/>
</svg>
