<svg xmlns="http://www.w3.org/2000/svg" viewBox="0 0 430 125" enable-background="new 0 0 430 125"><g><g fill="#fff"><circle cx="239.6" cy="74" r="2.5"/><circle cx="233.6" cy="74" r="2.3"/><circle cx="227.8" cy="74" r="2"/><circle cx="222" cy="74" r="1.8"/><circle cx="216.2" cy="74" r="1.6"/><circle cx="210.3" cy="74" r="1.5"/><circle cx="247.7" cy="65.3" r="2.5"/><circle cx="247.7" cy="59.3" r="2.3"/><circle cx="247.7" cy="53.4" r="2"/><circle cx="247.7" cy="47.7" r="1.8"/><circle cx="247.7" cy="41.9" r="1.6"/><circle cx="247.7" cy="36" r="1.5"/><circle cx="235" cy="68.1" r="2"/><circle cx="229.7" cy="65.7" r="1.8"/><circle cx="224.5" cy="63.2" r="1.6"/><path d="M217.8 60.2c.3-.7 1.2-1.1 2-.7.7.3 1.1 1.2.7 2-.3.7-1.2 1.1-2 .7-.8-.4-1.1-1.3-.7-2zM241.8 58.7c1.1-.4 2.2.2 2.6 1.3.4 1.1-.2 2.2-1.3 2.6-1.1.4-2.2-.2-2.6-1.3-.4-1 .2-2.2 1.3-2.6zM240 53.5c1-.3 2 .2 2.3 1.1.3 1-.2 2-1.1 2.3-1 .3-2-.2-2.3-1.1-.4-.9.1-2 1.1-2.3zM238.2 48.2c.9-.3 1.8.2 2.1 1 .3.9-.2 1.8-1 2.1-.9.3-1.8-.2-2.1-1-.4-.9.1-1.8 1-2.1zM236.3 42.7c.8-.3 1.6.2 1.9.9.3.8-.2 1.6-.9 1.9-.8.3-1.6-.2-1.9-.9-.3-.8.1-1.6.9-1.9z"/><circle cx="241.6" cy="67.7" r="2.5"/><path d="M235.7 61.8c-.9.9-.9 2.3 0 3.2.9.9 2.3.9 3.2 0 .9-.9.9-2.3 0-3.2-.9-.9-2.3-.9-3.2 0z"/><circle cx="233.2" cy="59.3" r="2"/><path d="M227.9 53.9c-.7.7-.7 1.9 0 2.6.7.7 1.9.7 2.6 0 .7-.7.7-1.9 0-2.6-.8-.7-1.9-.7-2.6 0zM223.9 49.9c-.6.6-.6 1.7 0 2.3.6.6 1.7.6 2.3 0 .6-.6.6-1.7 0-2.3-.6-.6-1.7-.6-2.3 0zM219.8 45.9c-.6.6-.6 1.5 0 2.1.6.6 1.5.6 2.1 0 .6-.6.6-1.5 0-2.1-.6-.6-1.5-.6-2.1 0z"/><circle cx="247.8" cy="82.9" r="2.5"/><circle cx="247.8" cy="88.9" r="2.3"/><circle cx="247.8" cy="94.7" r="2"/><circle cx="247.8" cy="100.5" r="1.8"/><circle cx="247.8" cy="106.3" r="1.6"/><circle cx="247.8" cy="112.2" r="1.5"/><circle cx="242.5" cy="87.1" r="2"/><path d="M239.4 93.9c-.9-.4-1.3-1.5-.9-2.4.4-.9 1.5-1.3 2.4-.9.9.4 1.3 1.5.9 2.4-.4 1-1.5 1.4-2.4.9zM237 99c-.8-.4-1.2-1.4-.8-2.2.4-.8 1.4-1.2 2.2-.8.8.4 1.2 1.4.8 2.2-.4.9-1.4 1.2-2.2.8z"/><circle cx="235.2" cy="102.9" r="1.5"/><path d="M233.1 80.4c-.4-1.1.2-2.2 1.3-2.6 1.1-.4 2.2.2 2.6 1.3.4 1.1-.2 2.2-1.3 2.6-1.1.4-2.3-.2-2.6-1.3zM227.8 82.2c-.3-1 .2-2 1.1-2.3 1-.3 2 .2 2.3 1.1.3 1-.2 2-1.1 2.3-.9.4-1.9-.1-2.3-1.1zM222.5 84c-.3-.9.2-1.8 1-2.1.9-.3 1.8.2 2.1 1 .3.9-.2 1.8-1 2.1-.9.3-1.8-.1-2.1-1zM217.1 85.9c-.3-.8.2-1.6.9-1.9.8-.3 1.6.2 1.9.9.3.8-.2 1.6-.9 1.9-.8.2-1.7-.2-1.9-.9z"/><circle cx="241.7" cy="80.2" r="2.5"/><path d="M235.9 86c.9.9 2.3.9 3.2 0 .9-.9.9-2.3 0-3.2-.9-.9-2.3-.9-3.2 0-.9.9-.9 2.3 0 3.2z"/><circle cx="233.3" cy="88.5" r="2"/><circle cx="229.3" cy="92.6" r="1.8"/><circle cx="225.2" cy="96.7" r="1.6"/><path d="M219.9 101.9c.6.6 1.5.6 2.1 0 .6-.6.6-1.5 0-2.1-.6-.6-1.5-.6-2.1 0-.5.6-.5 1.5 0 2.1z"/></g><g fill="#fff"><path d="M271.7 75.2c-.1-2-.2-4.3-.2-6.4h-.1c-.5 1.9-1.1 3.9-1.8 5.9l-2.3 6.7h-2.1l-2-6.6c-.6-2-1.1-4.1-1.5-6-.1 2-.2 4.4-.3 6.5l-.3 6.2h-2.6l1-15.3h3.7l2 6.2c.5 1.8 1 3.6 1.4 5.3h.1c.4-1.7.9-3.6 1.5-5.4l2.1-6.1h3.6l.9 15.3h-2.8l-.3-6.3zM286.5 78.2c0 1.3 0 2.4.1 3.3h-2.4l-.1-1.7h-.1c-.5.8-1.6 1.9-3.6 1.9s-3.8-1.2-3.8-4.8v-6.5h2.8v6c0 1.8.6 3 2.1 3 1.1 0 1.9-.8 2.1-1.5.1-.2.2-.5.2-.9v-6.7h2.8v7.9zM288.9 78.9c.6.4 1.8.8 2.8.8 1.2 0 1.8-.5 1.8-1.3s-.5-1.1-1.8-1.6c-2.2-.7-3.1-1.9-3.1-3.2 0-2 1.6-3.5 4.2-3.5 1.2 0 2.3.3 3 .7l-.6 2c-.5-.3-1.4-.6-2.3-.6-1 0-1.5.5-1.5 1.2s.5 1 1.9 1.5c2 .7 2.9 1.7 3 3.4 0 2-1.6 3.5-4.5 3.5-1.3 0-2.6-.3-3.4-.8l.5-2.1zM299.9 76.7c.1 2 1.6 2.9 3.4 2.9 1.3 0 2.2-.2 3.1-.5l.4 1.9c-1 .4-2.3.7-3.9.7-3.6 0-5.7-2.2-5.7-5.6 0-3.1 1.9-6 5.4-6 3.6 0 4.8 3 4.8 5.4 0 .5 0 .9-.1 1.2h-7.4zm4.9-1.9c0-1-.4-2.7-2.3-2.7-1.7 0-2.5 1.6-2.6 2.7h4.9zM319.1 78.2c0 1.3 0 2.4.1 3.3h-2.4l-.1-1.7h-.1c-.5.8-1.6 1.9-3.6 1.9s-3.8-1.2-3.8-4.8v-6.5h2.8v6c0 1.8.6 3 2.1 3 1.1 0 1.9-.8 2.1-1.5.1-.2.2-.5.2-.9v-6.7h2.8v7.9zM321.2 73.7c0-1.3 0-2.3-.1-3.3h2.4l.1 1.6h.1c.5-.9 1.5-1.9 3.4-1.9 1.5 0 2.6.8 3.1 2 .4-.6.8-1.1 1.3-1.4.6-.4 1.3-.7 2.3-.7 1.8 0 3.7 1.3 3.7 4.8v6.5h-2.7v-6.1c0-1.8-.6-2.9-2-2.9-1 0-1.7.7-2 1.5-.1.3-.1.6-.1.9v6.6h-2.7v-6.4c0-1.5-.6-2.6-1.9-2.6-1 0-1.8.8-2 1.6-.1.3-.1.6-.1.9v6.6h-2.7v-7.7zM343.6 80.3c0 .5 0 .9.1 1.2h-1.1l-.1-.6c-.3.4-.8.7-1.5.7-1 0-1.6-.7-1.6-1.5 0-1.3 1.1-1.9 3-1.9v-.1c0-.3-.1-.9-1-.9-.5 0-1 .2-1.3.4l-.2-.8c.4-.2 1-.4 1.8-.4 1.6 0 2.1 1 2.1 2.1v1.8zm-1.3-1.2c-.9 0-1.7.2-1.7.9 0 .5.3.7.7.7.5 0 .9-.3 1-.7v-.8999999999999999zM344.9 78v-1.5h1.1l.1.7c.2-.4.8-.9 1.6-.9.9 0 1.8.6 1.8 2.1v3h-1.3v-2.8c0-.7-.3-1.3-1-1.3-.5 0-.9.4-1 .7l-.1.4v2.9h-1.3v-3.3zM355.4 74.2v7.300000000000001h-1.1l-.1-.8c-.3.6-.9.9-1.6.9-1.2 0-2.1-1-2.1-2.6 0-1.7 1-2.7 2.2-2.7.7 0 1.2.3 1.4.6v-2.8h1.3zm-1.3 4.4v-.3c-.1-.5-.5-.9-1.1-.9-.8 0-1.3.7-1.3 1.6 0 .9.5 1.6 1.3 1.6.5 0 1-.3 1.1-.9v-1.1zM357.7 66.1h2.8v13h6.3v2.3h-9.1v-15.3zM369.7 68.8c-.9 0-1.5-.7-1.5-1.5 0-.9.6-1.5 1.6-1.5s1.5.7 1.6 1.5c-.1.8-.7 1.5-1.7 1.5zm-1.4 12.7v-11.1h2.8v11.1h-2.8zM373.2 65.3h2.8v6.6c.7-1.1 1.9-1.8 3.6-1.8 2.7 0 4.6 2.3 4.6 5.6 0 4-2.5 6-5 6-1.4 0-2.7-.5-3.5-1.9l-.1 1.7h-2.4c0-.8.1-2 .1-3.1v-13.1zm2.8 11.6c0 .2 0 .5.1.7.3 1.1 1.3 2 2.5 2 1.8 0 2.8-1.4 2.8-3.6 0-2-.9-3.6-2.8-3.6-1.1 0-2.2.8-2.5 2l-.1.7v1.8zM386.1 74c0-1.5 0-2.6-.1-3.6h2.4l.1 2.1h.1c.5-1.5 1.8-2.3 3.1-2.3.3 0 .4 0 .7.1v2.6l-.8-.1c-1.3 0-2.3.8-2.5 2.1l-.1.8v5.8h-2.8v-7.5zM402.4 78.8c0 1 0 2 .2 2.7h-2.6l-.2-1.2h-.1c-.7.9-1.8 1.5-3.3 1.5-2.2 0-3.5-1.6-3.5-3.3 0-2.8 2.5-4.2 6.6-4.2v-.2c0-.7-.3-1.9-2.3-1.9-1.1 0-2.2.3-3 .8l-.5-1.8c.8-.5 2.3-1 4-1 3.6 0 4.6 2.3 4.6 4.7v3.9zm-2.8-2.7c-2 0-3.9.4-3.9 2.1 0 1.1.7 1.6 1.6 1.6 1.1 0 1.9-.7 2.2-1.5.1-.2.1-.4.1-.6v-1.6zM404.4 74c0-1.5 0-2.6-.1-3.6h2.4l.1 2.1h.1c.5-1.5 1.8-2.3 3.1-2.3.3 0 .4 0 .7.1v2.6l-.8-.1c-1.3 0-2.3.8-2.5 2.1l-.1.8v5.8h-2.8v-7.5zM414.4 70.4l2 5.9c.2.7.5 1.5.6 2.1h.1c.2-.6.4-1.5.6-2.2l1.7-5.9h3l-2.8 7.6c-1.5 4.1-2.6 6-3.8 7.1-1.1 1-2.3 1.3-2.9 1.4l-.6-2.3c.5-.1 1-.4 1.6-.8.5-.3 1.2-1 1.5-1.8.1-.2.2-.4.2-.5 0-.1 0-.3-.1-.5l-4.1-10.2h3z"/></g><g fill="#fff"><path d="M277.4 66.8h-.9l-.1-.1v-1.8c0-.3 0-4-.1-6l.1-.1h.9l.1.1v2.3c0 2.1.1 3.8 0 5.6zM285.9 66.8h-1.1l-.1-.1-1.1-1.8-3-5.2v1.5c0 3.7 0 4.1.1 5.4l-.1.1h-.7l-.1-.1v-7.800000000000001l.1-.1h1.1l.1.1c.4.5.4.7 1.2 2l1.4 2.4 1.5 2.6v-1.5c0-1.3 0-3.8-.1-5.4l.1-.1h.7l.1.1v1.8c0 2.1 0 4.1.1 6.1h-.2zM287.8 65.4c.4.6 1.3.9 1.9.9 1.1 0 1.9-.6 1.9-1.5 0-.6-.4-1-.9-1.3-.2-.1-1.3-.6-1.6-.7-.6-.3-1.5-.8-1.5-2 0-1.1.8-2.1 2.6-2.1.7 0 1.4.2 2.1.6v.1c-.1.3-.1.4-.1.7l-.2-.1c-.3-.3-.9-.7-1.8-.7-1.7 0-1.7 1.1-1.7 1.4 0 .7.5 1 1.3 1.3l.8.4c.8.3 1.9.8 1.9 2.3 0 1.3-1 2.3-2.7 2.3-1.1 0-1.8-.4-2.1-.6v-.1c0-.1 0-.2.1-.4 0-.1 0-.3.1-.4l-.1-.1zM296.5 66.8h-.8l-.1-.1v-7.199999999999999h-2.4l-.1-.1v-.7l.1-.1h5.7l.1.1c0 .3 0 .4-.1.7l-.1.1h-2.4000000000000004v5.5c.2.3.2 1.4.1 1.8zM301.2 66.8h-.9l-.1-.1v-1.8c0-.3 0-4-.1-6l.1-.1h.9l.1.1v7.8999999999999995zM305.8 66.8h-.8l-.1-.1v-7.199999999999999h-2.4l-.1-.1v-.7l.1-.1h5.7l.1.1c0 .3 0 .4-.1.7l-.1.1h-2.4000000000000004v5.5c.1.3.2 1.4.1 1.8zM315.3 58.8v4.6c0 .8 0 1.5-.3 2.1-.5 1-1.5 1.5-2.7 1.5-.7 0-1.4-.2-1.9-.5-1-.7-1-2-1-2.9v-4.7l.1-.1h.9l.1.1-.1 4.2c0 1.4 0 2.1.6 2.6.3.3.8.5 1.5.5.8 0 1.4-.3 1.8-.9.3-.5.3-1.1.3-2.3 0-1.3 0-2.7-.1-4l.1-.1c.3-.1.3-.1.7-.1zM320 66.8h-.8l-.1-.1v-7.199999999999999h-2.4l-.1-.1v-.7l.1-.1h5.7l.1.1c0 .3 0 .4-.1.7l-.1.1h-2.4000000000000004v5.5c.1.3.2 1.4.1 1.8zM328.1 66.8h-4.4l-.1-.1v-1.7c0-2 0-4.1-.1-6.1l.1-.1h4.5l.1.1v.7l-.1.1h-3.5v2.7h3.4000000000000004l.1.1v.6l-.1.1h-3.4v3h3.6l.1.1v.6l-.2-.1zM334.4 66.9c-1.3 0-2-.7-2-2 0-1.2.6-3.5 2.9-3.5 1.4 0 2 .9 2 2 0 .4-.1.7-.2 1.1-.1.5-.6 2.4-2.7 2.4zm2.3-3.5c0-1.1-.7-1.4-1.3-1.4-1.9 0-2.2 2.5-2.2 3 0 .9.5 1.5 1.4 1.5.3 0 .7-.1 1.1-.3.7-.5.9-1.5 1-1.8-.1-.4 0-.7 0-1zM339.8 62.1c-.5 2.2-.6 2.7-1 4.7l-.1.1h-.6l-.1-.1.5-2.2.6-2.5h-.8l-.1-.1.1-.4.1-.1h.7l.2-.8c.1-.6.2-.8.3-1 .2-.4.5-1 1.4-1 .2 0 .4 0 .6.1l.1.1-.1.4-.1.1c-.1 0-.3-.1-.5-.1s-.4.1-.5.2c-.2.2-.3.5-.5 1.3l-.1.7h1l.1.1-.1.4-.1.1h-1z"/></g><g fill="#fff"><path d="M357.8 91.8c.4.6 1.3.9 1.9.9 1.1 0 1.9-.6 1.9-1.5 0-.6-.4-1-.9-1.3-.2-.1-1.3-.6-1.6-.7-.6-.3-1.5-.8-1.5-2 0-1.1.8-2.1 2.6-2.1.7 0 1.4.2 2.1.6v.1c-.1.3-.1.4-.1.7l-.1.1c-.3-.3-.9-.7-1.8-.7-1.7 0-1.7 1.1-1.7 1.4 0 .7.5 1 1.3 1.3l.8.4c.8.3 1.9.8 1.9 2.3 0 1.3-1 2.3-2.7 2.3-1.1 0-1.8-.4-2.1-.6v-.1c0-.1 0-.2.1-.4 0-.1 0-.3.1-.4l-.2-.3zM369.2 93.2h-4.4l-.1-.1v-1.7c0-2 0-4.1-.1-6.1l.1-.1h4.5l.1.1v.7l-.1.1h-3.5v2.7h3.4000000000000004l.1.1v.6l-.1.1h-3.4v3h3.6l.1.1v.6l-.2-.1zM371.6 85.2h2.3c.6 0 1.2 0 1.7.3.7.3 1.2 1 1.2 1.9 0 1.2-1 2.1-2.3 2.2l.8.9c.9 1.1 1.1 1.3 2.1 2.6l-.1.1h-1l-.1-.1-.7-.9-.9-1.2c-.2-.3-1-1.3-1.2-1.5h-.9c0 1.2 0 2.3.1 3.5l-.1.1h-.8l-.1-.1v-1.8c0-2 0-4-.1-6h.1zm3.1 3.6c.4-.1 1.2-.4 1.2-1.4 0-.5-.2-.8-.4-1-.4-.3-1-.4-1.8-.4h-1.2v3c1.2-.1 1.7-.1 2.2-.2zM382.1 93.2h-1.1l-.1-.1c-.2-.7-.6-1.8-.8-2.4l-1-3-.4-1.2c-.1-.3-.3-.8-.4-1.2l.1-.1c.5 0 .6 0 .9-.1l.1.1c.3 1.1.5 1.9.9 2.9l1.3 4.2 1.6-5c.2-.8.3-.9.6-2.1l.1-.1h.8l.1.1c-.2.5-.3.8-.9 2.7l-.9 2.7c-.3 1.1-.3 1.2-.9 2.6zM387.6 93.2h-.9l-.1-.1v-1.8c0-.3 0-4-.1-6l.1-.1h.9l.1.1v2.3c0 2.2.1 3.9 0 5.6zM396.3 91.8c0 .4 0 .5-.1.8l-.1.1c-.5.3-1.1.6-2.2.6-.7 0-1.7-.1-2.7-1-.9-.8-1.3-2-1.3-3.2 0-2.3 1.4-4.2 4-4.2 1.1 0 1.7.3 2.1.5l.1.1c-.1.3-.1.3-.1.7l-.1.1c-.4-.3-1-.6-1.9-.6-2.1 0-3 1.7-3 3.4s1 3.4 3.1 3.4c1.1 0 1.6-.4 2.1-.8l.1.1zM403.1 93.2h-4.4l-.1-.1v-1.7c0-2 0-4.1-.1-6.1l.1-.1h4.5l.1.1v.7l-.1.1h-3.5v2.7h3.4000000000000004l.1.1v.6l-.1.1h-3.4v3h3.6l.1.1v.6l-.2-.1zM405.2 91.8c.4.6 1.3.9 1.9.9 1.1 0 1.9-.6 1.9-1.5 0-.6-.4-1-.9-1.3-.2-.1-1.3-.6-1.6-.7-.6-.3-1.5-.8-1.5-2 0-1.1.8-2.1 2.6-2.1.7 0 1.4.2 2.1.6v.1c-.1.3-.1.4-.1.7l-.1.1c-.3-.3-.9-.7-1.8-.7-1.7 0-1.7 1.1-1.7 1.4 0 .7.5 1 1.3 1.3l.8.4c.8.3 1.9.8 1.9 2.3 0 1.3-1 2.3-2.7 2.3-1.1 0-1.8-.4-2.1-.6v-.1c0-.1 0-.2.1-.4 0-.1 0-.3.1-.4l-.2-.3z"/></g><g fill="#fff"><path d="M63.1 44h-7.6v14.5h7.6zM7.9 34.5v53.6h64.8v-53.6h-64.8zm28.5 48.8h-4.8v-39.3h-4.8v39.3h-4.8v-39.3h-4.8v39.3h-4.8v-44.1h23.8v44.1zm9.5 0h-4.8v-44.1h4.8v44.1zm22 0h-4.8v-20h-7.6v20h-4.8v-44.1h17.2v44.1zM79.9 77.3v10.8h-2.5v-20h2l3.2 10.5h.4l3.2-10.5h1.8v20h-2.5v-10.9l-2.4 9h-.8l-2.4-8.9zM94.1 88.1h-2.6v-20h2.6v20zM100.3 77.5v10.6h-2.4v-20h1.3l4.6 11v-11h2.4v20h-1.4l-4.5-10.6zM112.2 77.5v10.6h-2.4v-20h1.3l4.6 11v-11h2.4v20h-1.4l-4.5-10.6zM128.3 88.1h-6.5v-20h6.4v2.2h-3.9v6.5h3.6v2.2h-3.6v7h4v2.1zM137.4 88.1l-.6-3.9h-3.6l-.6 3.9h-2.6l3.7-20h2.6l3.7 20h-2.6zm-2.3-13.8h-.2l-1.4 7.7h2.9l-1.3-7.7zM145 88.1h-2.6v-20h6.3c1.3 0 1.9.7 1.9 1.7v8.9c0 1-.7 1.7-1.8 1.7h-3.8v7.7zm0-9.9h3.1v-8h-3.1v8zM162.4 86.5c0 1-.9 1.6-1.6 1.6h-5.7c-.7 0-1.6-.6-1.6-1.6v-16.8c0-1 .9-1.6 1.6-1.6h5.7c.7 0 1.6.6 1.6 1.6v16.8zm-2.6-16.2h-3.7v15.7h3.7v-15.7zM172.9 88.1h-7v-20h2.6v17.8h4.5v2.2zM177.6 88.1h-2.6v-20h2.6v20zM183.5 81.2v4.7h2.2v-4.5l-4.3-6.1c-.3-.4-.5-.8-.5-1.3v-4.3c0-.8.7-1.6 1.6-1.6h4.2c1 0 1.6.7 1.6 1.7v4.1h-2.6v-3.6h-2.2v3.5l4.1 5.8c.4.6.7 1.1.7 1.7v5.2c0 .9-.6 1.7-1.6 1.7h-4.2c-.8 0-1.6-.6-1.6-1.7v-5.2h2.6zM32.6 112.9h-2.6v-20h2.6v20zM38.8 102.3v10.6h-2.4v-20h1.3l4.6 11v-11h2.4v20h-1.4l-4.5-10.6zM50.3 106.1v4.7h2.2v-4.5l-4.3-6.1c-.3-.4-.5-.8-.5-1.3v-4.3c0-.8.7-1.6 1.6-1.6h4.2c1 0 1.6.7 1.6 1.7v4.1h-2.6v-3.6h-2.2v3.5l4.1 5.8c.4.6.7 1.1.7 1.7v5.2c0 .9-.6 1.7-1.6 1.7h-4.2c-.8 0-1.6-.6-1.6-1.7v-5.2h2.6zM62.2 112.9h-2.6v-17.8h-2.8v-2.2h8.1v2.2h-2.8v17.8zM69.8 112.9h-2.6v-20h2.6v20zM77.7 112.9h-2.6v-17.8h-2.8v-2.2h8.1v2.2h-2.8v17.8zM85.3 92.9v17.8h3.4v-17.8h2.6v18.4c0 1-.6 1.7-1.6 1.7h-5.4c-.9 0-1.6-.6-1.6-1.7v-18.4h2.6zM98.7 112.9h-2.6v-17.8h-2.8v-2.2h8.1v2.2h-2.8v17.8zM110.4 112.9h-6.5v-20h6.4v2.2h-3.9v6.5h3.6v2.2h-3.6v7h4v2.1zM129.5 111.3c0 1-.9 1.6-1.6 1.6h-5.7c-.7 0-1.6-.6-1.6-1.6v-16.8c0-1 .9-1.6 1.6-1.6h5.7c.7 0 1.6.6 1.6 1.6v16.8zm-2.6-16.2h-3.7v15.7h3.7v-15.7zM133 112.9v-20h6.4v2.2h-3.9v6.5h3.6v2.2h-3.6v9.1h-2.5zM156 112.9l-.6-3.9h-3.6l-.6 3.9h-2.5l3.7-20h2.6l3.7 20h-2.7zm-2.3-13.8h-.2l-1.4 7.7h2.9l-1.3-7.7zM163.6 112.9h-2.6v-20h6.6c1.2 0 1.8.8 1.8 1.7v7.4c0 1.1-.8 1.7-1.7 1.7h-.3l2.5 9.3h-2.9l-2.6-10.6.4-.8h2.1v-6.4h-3.3v17.7zM176.4 112.9h-2.6v-17.8h-2.8v-2.2h8.1v2.2h-2.8v17.8zM183.5 106.1v4.7h2.2v-4.5l-4.3-6.1c-.3-.4-.5-.8-.5-1.3v-4.3c0-.8.7-1.6 1.6-1.6h4.2c1 0 1.6.7 1.6 1.7v4.1h-2.6v-3.6h-2.2v3.5l4.1 5.8c.4.6.7 1.1.7 1.7v5.2c0 .9-.6 1.7-1.6 1.7h-4.2c-.8 0-1.6-.6-1.6-1.7v-5.2h2.6z"/></g></g></svg>