<svg version="1" xmlns="http://www.w3.org/2000/svg" viewBox="0 0 285 279" enable-background="new 0 0 285 279"><path fill="#fff" d="M143.9 264.5c-17 0-33.6-3.3-49.1-9.9-15-6.4-28.5-15.5-40.1-27s-20.7-25.1-27-40.1c-6.6-15.6-9.9-32.1-9.9-49.1s3.3-33.6 9.9-49.1c6.4-15 15.5-28.5 27-40.1s25.1-20.7 40.1-27c15.6-6.6 32.1-9.9 49.1-9.9s33.6 3.3 49.1 9.9c15 6.4 28.5 15.5 40.1 27s20.7 25.1 27 40.1c6.6 15.6 9.9 32.1 9.9 49.1s-3.3 33.6-9.9 49.1c-6.4 15-15.5 28.5-27 40.1s-25.1 20.7-40.1 27c-15.6 6.6-32.1 9.9-49.1 9.9zm0-240.4c-30.5 0-59.2 11.9-80.7 33.4-21.6 21.6-33.4 50.2-33.4 80.7s11.9 59.2 33.4 80.7c21.6 21.6 50.2 33.4 80.7 33.4s59.2-11.9 80.7-33.4c21.6-21.6 33.4-50.2 33.4-80.7s-11.9-59.2-33.4-80.7-50.2-33.4-80.7-33.4zM143.9 248.6c-14.9 0-29.3-2.9-42.9-8.7-13.1-5.6-24.9-13.5-35.1-23.6-10.1-10.1-18.1-21.9-23.6-35.1-5.8-13.6-8.7-28.1-8.7-42.9s2.9-29.3 8.7-42.9c5.6-13.1 13.5-24.9 23.6-35.1 10.1-10.1 21.9-18.1 35-23.6 13.6-5.8 28.1-8.7 42.9-8.7 14.9 0 29.3 2.9 42.9 8.7 13.1 5.6 24.9 13.5 35.1 23.6 10.2 10.1 18.2 21.9 23.7 35.1 5.8 13.6 8.7 28.1 8.7 42.9s-2.9 29.3-8.7 42.9c-5.6 13.1-13.5 24.9-23.6 35.1-10.1 10.1-21.9 18.1-35.1 23.6-13.6 5.8-28 8.7-42.9 8.7zm0-208.6c-26.3 0-50.9 10.2-69.5 28.8s-28.8 43.2-28.8 69.5 10.2 50.9 28.8 69.5 43.2 28.8 69.5 28.8 50.9-10.2 69.5-28.8 28.8-43.2 28.8-69.5-10.2-50.9-28.8-69.5-43.3-28.8-69.5-28.8zM143.9 232.7c-25.2 0-48.9-9.8-66.8-27.7-17.8-17.8-27.7-41.5-27.7-66.8s9.8-48.9 27.7-66.8c17.8-17.8 41.5-27.7 66.8-27.7s48.9 9.8 66.8 27.7c17.8 17.8 27.7 41.5 27.7 66.8s-9.8 48.9-27.7 66.8-41.6 27.7-66.8 27.7zm0-176.8c-22 0-42.7 8.6-58.2 24.1-15.6 15.6-24.1 36.2-24.1 58.2s8.6 42.7 24.1 58.2c15.6 15.6 36.2 24.1 58.2 24.1s42.7-8.6 58.2-24.1c15.6-15.6 24.1-36.2 24.1-58.2s-8.6-42.7-24.1-58.2c-15.5-15.5-36.2-24.1-58.2-24.1zM143.9 216.8c-21 0-40.7-8.2-55.5-23-14.8-14.8-23-34.5-23-55.5s8.2-40.7 23-55.5c14.8-14.8 34.5-23 55.5-23s40.7 8.2 55.5 23c14.8 14.8 23 34.5 23 55.5s-8.2 40.7-23 55.5c-14.8 14.8-34.6 23-55.5 23zm0-145c-36.6 0-66.5 29.8-66.5 66.5s29.8 66.5 66.5 66.5 66.5-29.8 66.5-66.5-29.9-66.5-66.5-66.5zM143.9 200.9c-34.5 0-62.6-28.1-62.6-62.6s28.1-62.6 62.6-62.6 62.6 28.1 62.6 62.6-28.1 62.6-62.6 62.6zm0-113.1c-27.9 0-50.5 22.7-50.5 50.5s22.7 50.5 50.5 50.5 50.5-22.7 50.5-50.5-22.7-50.5-50.5-50.5zM143.9 185c-25.7 0-46.7-20.9-46.7-46.7s20.9-46.7 46.7-46.7 46.7 20.9 46.7 46.7-21 46.7-46.7 46.7zm0-81.3c-19.1 0-34.6 15.5-34.6 34.6s15.5 34.6 34.6 34.6 34.6-15.5 34.6-34.6-15.5-34.6-34.6-34.6zM143.9 169.1c-17 0-30.8-13.8-30.8-30.8s13.8-30.8 30.8-30.8 30.8 13.8 30.8 30.8-13.9 30.8-30.8 30.8zm0-49.5c-10.3 0-18.7 8.4-18.7 18.7 0 10.3 8.4 18.7 18.7 18.7 10.3 0 18.7-8.4 18.7-18.7 0-10.3-8.4-18.7-18.7-18.7z"/></svg>