<?xml version="1.0" encoding="utf-8"?>
<!-- Generator: Adobe Illustrator 17.1.0, SVG Export Plug-In . SVG Version: 6.00 Build 0)  -->
<!DOCTYPE svg PUBLIC "-//W3C//DTD SVG 1.0//EN" "http://www.w3.org/TR/2001/REC-SVG-20010904/DTD/svg10.dtd">
<svg version="1.0" id="Layer_1" xmlns="http://www.w3.org/2000/svg" xmlns:xlink="http://www.w3.org/1999/xlink" x="0px" y="0px"
	 viewBox="0 0 285 279" enable-background="new 0 0 285 279" xml:space="preserve">
<g>
	<path fill="#FFFFFF" d="M143.9,264.5c-17,0-33.6-3.3-49.1-9.9c-15-6.4-28.5-15.5-40.1-27s-20.7-25.1-27-40.1
		c-6.6-15.6-9.9-32.1-9.9-49.1s3.3-33.6,9.9-49.1c6.4-15,15.5-28.5,27-40.1s25.1-20.7,40.1-27c15.6-6.6,32.1-9.9,49.1-9.9
		c17,0,33.6,3.3,49.1,9.9c15,6.4,28.5,15.5,40.1,27s20.7,25.1,27,40.1c6.6,15.6,9.9,32.1,9.9,49.1s-3.3,33.6-9.9,49.1
		c-6.4,15-15.5,28.5-27,40.1s-25.1,20.7-40.1,27C177.4,261.2,160.9,264.5,143.9,264.5z M143.9,24.1c-30.5,0-59.2,11.9-80.7,33.4
		c-21.6,21.6-33.4,50.2-33.4,80.7s11.9,59.2,33.4,80.7c21.6,21.6,50.2,33.4,80.7,33.4s59.2-11.9,80.7-33.4
		c21.6-21.6,33.4-50.2,33.4-80.7s-11.9-59.2-33.4-80.7C203.1,36,174.4,24.1,143.9,24.1z"/>
</g>
<g>
	<path fill="#FFFFFF" d="M143.9,248.6c-14.9,0-29.3-2.9-42.9-8.7c-13.1-5.6-24.9-13.5-35.1-23.6c-10.1-10.1-18.1-21.9-23.6-35.1
		c-5.8-13.6-8.7-28.1-8.7-42.9s2.9-29.3,8.7-42.9c5.6-13.1,13.5-24.9,23.6-35.1C76,50.2,87.8,42.2,100.9,36.7
		c13.6-5.8,28.1-8.7,42.9-8.7c14.9,0,29.3,2.9,42.9,8.7c13.1,5.6,24.9,13.5,35.1,23.6C232,70.4,240,82.2,245.5,95.4
		c5.8,13.6,8.7,28.1,8.7,42.9s-2.9,29.3-8.7,42.9c-5.6,13.1-13.5,24.9-23.6,35.1c-10.1,10.1-21.9,18.1-35.1,23.6
		C173.2,245.7,158.8,248.6,143.9,248.6z M143.9,40c-26.3,0-50.9,10.2-69.5,28.8c-18.6,18.6-28.8,43.2-28.8,69.5s10.2,50.9,28.8,69.5
		c18.6,18.6,43.2,28.8,69.5,28.8s50.9-10.2,69.5-28.8c18.6-18.6,28.8-43.2,28.8-69.5s-10.2-50.9-28.8-69.5
		C194.8,50.2,170.1,40,143.9,40z"/>
</g>
<g>
	<path fill="#FFFFFF" d="M143.9,232.7c-25.2,0-48.9-9.8-66.8-27.7c-17.8-17.8-27.7-41.5-27.7-66.8s9.8-48.9,27.7-66.8
		c17.8-17.8,41.5-27.7,66.8-27.7s48.9,9.8,66.8,27.7c17.8,17.8,27.7,41.5,27.7,66.8s-9.8,48.9-27.7,66.8
		C192.8,222.9,169.1,232.7,143.9,232.7z M143.9,55.9c-22,0-42.7,8.6-58.2,24.1c-15.6,15.6-24.1,36.2-24.1,58.2s8.6,42.7,24.1,58.2
		c15.6,15.6,36.2,24.1,58.2,24.1s42.7-8.6,58.2-24.1c15.6-15.6,24.1-36.2,24.1-58.2s-8.6-42.7-24.1-58.2
		C186.6,64.5,165.9,55.9,143.9,55.9z"/>
</g>
<g>
	<path fill="#FFFFFF" d="M143.9,216.8c-21,0-40.7-8.2-55.5-23c-14.8-14.8-23-34.5-23-55.5s8.2-40.7,23-55.5
		c14.8-14.8,34.5-23,55.5-23s40.7,8.2,55.5,23c14.8,14.8,23,34.5,23,55.5s-8.2,40.7-23,55.5C184.6,208.6,164.8,216.8,143.9,216.8z
		 M143.9,71.8c-36.6,0-66.5,29.8-66.5,66.5s29.8,66.5,66.5,66.5s66.5-29.8,66.5-66.5S180.5,71.8,143.9,71.8z"/>
</g>
<g>
	<path fill="#FFFFFF" d="M143.9,200.9c-34.5,0-62.6-28.1-62.6-62.6s28.1-62.6,62.6-62.6s62.6,28.1,62.6,62.6
		S178.4,200.9,143.9,200.9z M143.9,87.8c-27.9,0-50.5,22.7-50.5,50.5s22.7,50.5,50.5,50.5s50.5-22.7,50.5-50.5
		S171.7,87.8,143.9,87.8z"/>
</g>
<g>
	<path fill="#FFFFFF" d="M143.9,185c-25.7,0-46.7-20.9-46.7-46.7s20.9-46.7,46.7-46.7s46.7,20.9,46.7,46.7S169.6,185,143.9,185z
		 M143.9,103.7c-19.1,0-34.6,15.5-34.6,34.6s15.5,34.6,34.6,34.6s34.6-15.5,34.6-34.6S163,103.7,143.9,103.7z"/>
</g>
<g>
	<path fill="#FFFFFF" d="M143.9,169.1c-17,0-30.8-13.8-30.8-30.8s13.8-30.8,30.8-30.8s30.8,13.8,30.8,30.8S160.8,169.1,143.9,169.1z
		 M143.9,119.6c-10.3,0-18.7,8.4-18.7,18.7c0,10.3,8.4,18.7,18.7,18.7c10.3,0,18.7-8.4,18.7-18.7C162.6,128,154.2,119.6,143.9,119.6
		z"/>
</g>
</svg>
