<svg version="1" xmlns="http://www.w3.org/2000/svg" viewBox="0 0 187.2 176.7" enable-background="new 0 0 187.2 176.7"><path fill="#999" d="M33 93.6v-66.2h5l-12.2-14.6-12.3 14.6h5v115h-5l12.3 14.6 12.2-14.6h-5z"/><path fill="#fff" d="M146.2 57.1l-15.6-15.5c-3.7-3.7-9.8-3.7-13.5 0-3.7 3.7-3.7 9.8.1 13.5l3.4 3.3c-2 .5-3.9 1.2-5.9 1.9l-7.6-7.2c-5-4.7-12.5-5-16.7-.5-4.2 4.5-3.6 11.9 1.4 16.7l2.4 2.2c-1.5 1.1-3 2.3-4.4 3.5l-8.5-8c-5-4.7-12.5-5-16.7-.5-4.2 4.5-3.6 11.9 1.4 16.7l8.6 8.2c-1.5 2.1-2.8 4.3-3.9 6.4l-33.5-31.7c-5-4.7-12.5-5-16.7-.5-4.2 4.5-3.6 11.9 1.4 16.7l46.9 44.4c3.3 4.1 4.2 7.6 2.4 10.7 0 0 0 .1-.1.1-13.4 7-24.3 14.8-24.1 21.6.2 8.6 13.5 10 26.3 8.2l46.4.1c14.5 2.3 26.7-3.6 37.8-13.3.6-.5 1.1-.9 1.5-1.4 1.9-1.7 3.7-3.5 5.5-5.4 4.8-5 37.4-35.2-4.8-82-3.2-4.3-7.9-6.9-13.5-8.2"/></svg>