<?xml version="1.0" encoding="utf-8"?>
<!-- Generator: Adobe Illustrator 17.1.0, SVG Export Plug-In . SVG Version: 6.00 Build 0)  -->
<!DOCTYPE svg PUBLIC "-//W3C//DTD SVG 1.0//EN" "http://www.w3.org/TR/2001/REC-SVG-20010904/DTD/svg10.dtd">
<svg version="1.0" id="Layer_1" xmlns="http://www.w3.org/2000/svg" xmlns:xlink="http://www.w3.org/1999/xlink" x="0px" y="0px"
	 viewBox="0 0 187.2 176.7" enable-background="new 0 0 187.2 176.7" xml:space="preserve">
<polygon fill="#999999" points="33,93.6 33,76.3 33,27.4 38,27.4 25.8,12.8 13.5,27.4 18.5,27.4 18.5,76.3 18.5,93.6 18.5,142.4 
	13.5,142.4 25.8,157 38,142.4 33,142.4 "/>
<path fill="#FFFFFF" d="M146.2,57.1l-15.6-15.5c-3.7-3.7-9.8-3.7-13.5,0c-3.7,3.7-3.7,9.8,0.1,13.5l3.4,3.3c-2,0.5-3.9,1.2-5.9,1.9
	l-7.6-7.2c-5-4.7-12.5-5-16.7-0.5c-4.2,4.5-3.6,11.9,1.4,16.7l2.4,2.2c-1.5,1.1-3,2.3-4.4,3.5l-8.5-8c-5-4.7-12.5-5-16.7-0.5
	c-4.2,4.5-3.6,11.9,1.4,16.7l8.6,8.2c-1.5,2.1-2.8,4.3-3.9,6.4L37.2,66.1c-5-4.7-12.5-5-16.7-0.5c-4.2,4.5-3.6,11.9,1.4,16.7
	l46.9,44.4c3.3,4.1,4.2,7.6,2.4,10.7c0,0,0,0.1-0.1,0.1c-13.4,7-24.3,14.8-24.1,21.6c0.2,8.6,13.5,10,26.3,8.2l46.4,0.1l0,0
	c14.5,2.3,26.7-3.6,37.8-13.3c0.6-0.5,1.1-0.9,1.5-1.4c1.9-1.7,3.7-3.5,5.5-5.4c4.8-5,37.4-35.2-4.8-82
	C156.5,61,151.8,58.4,146.2,57.1"/>
</svg>
